<?xml version="1.0" encoding="UTF-8" standalone="no"?>
<svg
   xmlns:dc="http://purl.org/dc/elements/1.1/"
   xmlns:cc="http://creativecommons.org/ns#"
   xmlns:rdf="http://www.w3.org/1999/02/22-rdf-syntax-ns#"
   xmlns:svg="http://www.w3.org/2000/svg"
   xmlns="http://www.w3.org/2000/svg"
   xmlns:sodipodi="http://sodipodi.sourceforge.net/DTD/sodipodi-0.dtd"
   xmlns:inkscape="http://www.inkscape.org/namespaces/inkscape"
   width="210mm"
   height="297mm"
   viewBox="0 0 210 297"
   version="1.1"
   id="svg8"
   sodipodi:docname="drawing.svg"
   inkscape:version="1.0.1 (0767f8302a, 2020-10-17)">
  <defs
     id="defs2" />
  <sodipodi:namedview
     id="base"
     pagecolor="#ffffff"
     bordercolor="#666666"
     borderopacity="1.0"
     inkscape:pageopacity="0.0"
     inkscape:pageshadow="2"
     inkscape:zoom="0.70710678"
     inkscape:cx="-16.847263"
     inkscape:cy="579.13708"
     inkscape:document-units="mm"
     inkscape:current-layer="layer1"
     inkscape:document-rotation="0"
     showgrid="false"
     inkscape:window-width="1920"
     inkscape:window-height="1054"
     inkscape:window-x="0"
     inkscape:window-y="26"
     inkscape:window-maximized="1" />
  <metadata
     id="metadata5">
    <rdf:RDF>
      <cc:Work
         rdf:about="">
        <dc:format>image/svg+xml</dc:format>
        <dc:type
           rdf:resource="http://purl.org/dc/dcmitype/StillImage" />
        <dc:title />
      </cc:Work>
    </rdf:RDF>
  </metadata>
  <g
     inkscape:label="Layer 1"
     inkscape:groupmode="layer"
     id="layer1">
    <path
       style="fill:#ffffff;stroke-width:0.24333"
       d="m 37.404514,245.10673 c -0.309466,-0.35562 -1.410654,-1.58508 -2.447019,-2.73222 -9.452343,-10.46246 -13.473354,-23.34537 -11.672539,-37.39765 1.39624,-10.89527 7.892845,-22.53773 16.582765,-29.71769 11.232005,-9.28034 25.018428,-13.1994 39.131777,-11.12396 l 2.544602,0.3742 0.797514,-0.87049 c 1.084463,-1.1837 1.424788,-2.26522 1.390641,-4.41922 l -0.02888,-1.82273 16.558795,-14.62833 c 26.03398,-22.99887 47.0184,-41.5838 57.93128,-51.307038 5.52409,-4.921889 10.62031,-9.420018 11.32495,-9.995836 1.83034,-1.495707 7.92539,-6.871415 9.59325,-8.461023 3.12441,-2.977851 4.30714,-2.853818 8.66888,0.90912 l 2.74796,2.370709 -3.39265,3.451835 c -1.86596,1.898512 -4.54089,4.553184 -5.94431,5.899275 -1.40341,1.346092 -4.96915,4.836285 -7.92386,7.755986 -2.9547,2.919707 -13.58094,13.381082 -23.61385,23.247472 -10.0329,9.8664 -29.57142,29.09227 -43.41893,42.72413 -13.847504,13.63187 -25.543873,25.08915 -25.991939,25.46063 -0.534303,0.44297 -0.945674,0.61015 -1.195375,0.48579 -2.08505,-1.03841 -7.789122,-1.74528 -10.99989,-1.36314 -12.760838,1.51878 -22.046961,10.19428 -23.940443,22.36619 -0.733385,4.71448 -0.29745,9.08417 1.328636,13.31764 0.805893,2.09815 2.367869,5.0313 2.672189,5.01797 0.09783,-0.005 14.245727,-14.56884 31.439876,-32.3657 C 193.35686,74.484339 189.94478,78.002727 192.81129,75.490557 c 0.96194,-0.843027 3.17861,-3.05871 4.92594,-4.923738 3.50816,-3.744489 3.50703,-3.742437 2.88974,-5.395615 -0.3511,-0.940244 -1.4258,-2.340155 -4.37294,-5.696208 -3.89489,-4.435308 -4.75966,-7.412158 -2.7807,-9.572207 1.28996,-1.407984 3.60894,-1.295203 5.79633,0.281906 1.38667,0.999799 1.83119,1.678572 1.68526,2.573466 -0.22058,1.352806 -2.21687,1.945377 -2.9519,0.876246 -0.57629,-0.838227 -0.74064,-1.743808 -0.38659,-2.130245 0.43076,-0.470177 0.23688,-0.605727 -0.85699,-0.599176 -1.59837,0.0096 -2.25582,1.249004 -1.60831,3.031936 0.35673,0.982272 0.74991,1.433358 4.05722,4.654788 4.07018,3.964498 4.76683,4.968712 5.10157,7.353864 0.23928,1.70494 -0.12793,2.524345 -2.10348,4.693902 -0.92618,1.017738 -2.78938,3.213783 -4.13977,4.880701 -3.24694,4.007983 -4.65932,5.65275 -22.04624,25.673713 -8.16388,9.40066 -24.39584,28.09174 -36.07103,41.53574 -11.67518,13.44399 -34.50462,39.72931 -50.732067,58.41183 -16.227469,18.68249 -29.50098,34.04818 -29.496703,34.14598 0.01333,0.30432 3.071649,1.60416 5.232177,2.22374 12.376156,3.54922 25.901833,-2.78507 31.164093,-14.59462 2.201414,-4.9404 2.940324,-10.76422 2.001304,-15.77384 -0.428614,-2.28666 -1.326024,-5.15657 -1.911222,-6.1121 -0.145695,-0.23788 -0.01508,-0.66228 0.37955,-1.23323 0.330908,-0.47881 10.722948,-13.13107 23.093418,-28.11616 12.37044,-14.9851 29.81652,-36.128 38.76903,-46.98423 8.95251,-10.85622 18.44589,-22.35546 21.0964,-25.553875 2.6505,-3.1984 5.81597,-7.055326 7.03435,-8.570932 1.21838,-1.515605 3.62931,-4.412158 5.35761,-6.436785 l 3.14236,-3.681146 2.60163,2.530424 c 4.12948,4.016447 4.35634,5.183827 1.66273,8.556366 -1.43789,1.800301 -6.26075,8.341543 -7.59091,10.295518 -0.51207,0.75224 -4.54795,6.22182 -8.96861,12.15463 -8.73305,11.72033 -25.41436,34.24763 -46.05175,62.19069 l -13.12633,17.77304 -1.81829,0.1304 c -2.14876,0.1541 -3.19643,0.58758 -4.28088,1.77127 l -0.79752,0.87049 0.59499,2.50221 c 2.81388,11.8336 1.24262,24.12194 -4.42162,34.58013 -3.84416,7.09767 -8.25097,12.18567 -14.542266,16.79014 -4.677198,3.42314 -11.45797,6.51992 -16.856056,7.69816 -11.911932,2.60003 -23.326495,0.83706 -33.591556,-5.18817 -3.451568,-2.02595 -8.914724,-6.19428 -10.488748,-8.00283 z m 6.272342,3.95333 c 6.174568,4.78907 13.02747,7.75782 20.764115,8.99527 7.303239,1.1681 15.583054,0.2662 22.561703,-2.4576 7.490052,-2.92339 12.8323,-6.58372 18.230786,-12.49112 7.06859,-7.73498 11.31288,-17.44316 12.35336,-28.25672 0.24706,-2.56765 -0.0111,-9.0065 -0.47903,-11.94548 -0.16511,-1.03714 -0.52717,-2.74918 -0.80457,-3.80453 -0.27741,-1.05536 -0.4881,-2.05568 -0.46822,-2.22294 0.0648,-0.54502 2.07398,-2.55323 2.96856,-2.96712 0.47995,-0.22205 1.67116,-0.461 2.64715,-0.531 1.56796,-0.11244 1.82525,-0.20596 2.21062,-0.80353 0.23986,-0.37194 11.41627,-15.4913 24.83643,-33.5986 13.42018,-18.10729 24.79776,-33.5235 25.28354,-34.25825 0.92556,-1.39991 14.52757,-19.77887 22.01153,-29.741885 4.7141,-6.275615 4.85387,-6.538513 4.29852,-8.084992 -0.23682,-0.659444 -0.79714,-1.297643 -2.62276,-2.987279 l -2.3216,-2.148695 -1.5278,1.735398 c -0.84029,0.954471 -2.95821,3.469275 -4.70649,5.588445 C 158.02711,126.51716 97.124385,200.4767 97.138125,200.52936 c 0.01012,0.0385 0.304045,0.89285 0.653309,1.89843 2.413026,6.94747 2.09711,14.0127 -0.929441,20.78611 -2.671426,5.97863 -7.599044,10.92434 -13.740191,13.79065 -3.7751,1.76199 -9.30859,2.65748 -13.769896,2.2284 -2.579439,-0.24808 -7.254413,-1.59621 -9.441336,-2.72264 l -1.607012,-0.82773 1.238756,-1.55912 c 0.681332,-0.85749 11.014844,-12.79933 22.963426,-26.53738 26.22168,-30.14876 105.26845,-121.096424 109.61975,-126.123581 1.70861,-1.974008 4.02808,-4.749683 5.15434,-6.168176 1.12627,-1.418494 2.7213,-3.792468 3.78904,-4.964892 2.23919,-2.458779 2.62977,-2.911169 2.25507,-4.557448 -0.4809,-2.112815 -1.14342,-2.75006 -5.04775,-6.565868 -3.00811,-2.939897 -3.46946,-3.974892 -3.77914,-4.751616 -0.87773,-2.201462 -1.17624,-5.635987 0.73049,-5.099781 l 2.28448,0.642438 -0.91635,-0.212555 c -1.85521,-0.43033 -3.26656,0.835548 -3.18137,2.782766 0.0618,1.411896 1.58565,4.057844 4.40804,7.271353 3.31119,3.77003 3.56913,4.52638 3.73969,6.17175 l 0.0183,1.580996 -3.09406,3.242759 c -1.78911,1.875093 -4.31419,4.44276 -5.65273,5.666774 -2.86004,2.615329 -6.63588,6.4478 -17.77231,18.038902 -4.49827,4.681904 -23.93213,24.820439 -43.18638,44.752259 -19.25424,19.93182 -45.388981,46.99971 -58.07721,60.15085 -12.688248,13.15114 -23.719776,24.52773 -24.51454,25.28133 l -1.444994,1.37016 -0.964922,-1.52858 c -1.313085,-2.08018 -3.064348,-6.61957 -3.536748,-9.16748 -1.482178,-7.99416 0.661311,-16.16073 5.860876,-22.3296 2.487518,-2.95126 4.684815,-4.80013 7.694451,-6.47435 6.483229,-3.60653 13.493874,-4.53826 20.625529,-2.74119 1.032252,0.26011 1.908951,0.47838 1.948239,0.48502 0.05362,0.009 68.411849,-67.11999 103.009229,-101.157074 1.9584,-1.926671 4.27863,-4.256123 5.15607,-5.176558 l 1.59534,-1.673521 -2.34323,-2.125078 c -1.84262,-1.671086 -2.52731,-2.173536 -3.20491,-2.35185 -1.58908,-0.418173 -1.83876,-0.255973 -7.67871,4.988162 -9.27134,8.325452 -26.3922,23.480579 -27.70593,24.524859 -0.68952,0.54809 -15.0532,13.22853 -31.91929,28.17877 -16.866096,14.95022 -30.951651,27.40432 -31.301228,27.67576 -0.561609,0.43609 -0.632065,0.70079 -0.60739,2.27236 0.01554,0.97836 -0.118501,2.18589 -0.297791,2.6834 -0.334182,0.9273 -2.15925,3.10418 -2.696533,3.21634 -0.164879,0.0344 -1.179777,-0.0881 -2.255337,-0.2723 -1.07555,-0.18417 -2.81266,-0.39533 -3.860252,-0.46924 -2.96861,-0.20942 -9.405414,0.0957 -11.941684,0.56603 -12.767294,2.3677 -23.717228,9.30127 -31.115351,19.70244 -7.630795,10.72826 -10.378359,24.69062 -7.283676,37.01357 1.893304,7.53901 5.438449,14.11435 10.68452,19.81706 3.692586,4.01397 3.48813,3.82665 7.97742,7.30858 z"
       id="path370"
       sodipodi:nodetypes="scssscsscssssscsssssssssscsssssssssssssscssssscssssssssscssssscsscsssssssssssssssssssssscsccsssssccsssssssscsssscsssssscssssscsscsssssscsssscsssss" />
    <path
       style="fill:#ffffff;stroke-width:0.252538"
       d=""
       id="path380"
       transform="scale(0.26458333)" />
    <path
       style="fill:#ffffff;stroke-width:0.707107"
       d="m 740.63828,187.88758 c -7.43857,0.18302 -12.87562,8.63596 -9.37745,15.38924 6.60076,15.45495 19.65037,24.97734 28.0253,39.27679 1.52855,3.59512 0.95494,9.87803 1.12746,13.15533 -23.2205,24.87429 -50.25576,48.42441 -73.56209,74.44602 -121.63939,125.30738 -241.97306,250.8446 -363.37513,376.38189 -47.93091,49.42832 -91.68042,95.26816 -140.02871,144.28749 -2.10061,2.82225 -3.69709,0.11243 -4.90757,-1.37333 -9.03373,-16.94242 -17.1385,-35.11602 -15.90901,-54.64638 -0.45298,-37.43855 23.0279,-73.21699 55.88866,-90.32637 23.00854,-12.33871 53.31761,-14.69819 78.50067,-8.05306 4.56011,2.04078 10.33473,-3.58983 13.08438,-7.97388 135.82793,-133.4301 271.40919,-265.04304 403.77012,-397.19276 5.30751,-3.19282 -1.85703,-5.96336 -4.27657,-8.77656 -5.81915,-4.57628 -12.57593,-13.33081 -20.9867,-11.5008 -9.13048,4.33316 -16.3456,13.27483 -24.13758,19.55654 C 583.53,362.8741 501.18193,434.00359 420.06591,506.14666 c -33.23209,29.59684 -66.86957,58.74994 -99.92206,88.54063 -3.59933,6.15102 -0.57958,14.29824 -4.43737,20.56133 -2.99626,4.63232 -8.13289,10.15032 -14.65025,8.33958 -19.09875,-3.05618 -38.88207,-1.95089 -58.08464,-0.0527 -49.47819,7.08179 -95.13334,35.5451 -123.28133,77.00453 -31.437361,44.68728 -39.376601,105.21911 -19.893556,156.57702 12.487936,34.49963 37.034756,63.7542 66.216326,85.53408 26.64043,19.861 61.07768,33.43985 94.41201,34.98835 19.07142,0.40036 37.77748,-1.6022 56.07997,-7.4154 36.25249,-10.22066 67.88732,-32.19374 90.72074,-62.06151 27.61993,-35.62324 41.85543,-82.16891 37.39895,-127.10319 -0.58411,-12.42321 -3.82158,-24.45234 -6.63661,-36.5133 4.45409,-7.7089 14.2752,-12.86461 23.41069,-12.85001 4.59277,0.40222 7.51646,-3.53405 9.61107,-7.47828 73.60925,-99.44322 146.21236,-196.10135 219.37609,-295.87318 20.9244,-28.73237 42.46239,-57.08156 62.96615,-86.11429 2.94372,-3.67956 6.29788,-11.5912 2.66086,-15.72019 -4.96747,-6.39469 -11.86532,-12.82398 -18.44951,-17.51262 -2.98813,0.44513 -4.72881,5.71614 -7.05601,7.45802 -89.22077,107.35365 -176.47272,213.1515 -265.31455,320.81889 -32.1756,39.27189 -66.47717,80.91834 -98.29755,120.46942 -0.21973,6.28769 4.47824,11.58002 5.5077,17.79002 8.46873,34.9537 -3.04128,73.58985 -29.0106,98.64931 -19.32919,19.66466 -44.88341,30.50911 -72.44944,29.59751 -17.28003,-0.0896 -35.32389,-4.70988 -50.38451,-12.93231 9.73841,-13.10842 23.00125,-25.98878 33.53368,-38.57732 153.78523,-177.37781 307.38737,-353.20722 461.13667,-530.616 17.7107,-20.64418 34.42746,-41.51718 51.53511,-62.65216 5.66522,-8.16177 0.40729,-18.70777 -5.90959,-24.85784 -8.32998,-9.77738 -18.46296,-17.83219 -25.379,-28.74208 -3.57604,-6.69696 0.40328,-16.9981 8.74541,-16.29316 -0.56016,-1.08623 -2.47329,-1.233 -3.58248,-1.22225 z"
       id="path468"
       transform="scale(0.26458333)"
       sodipodi:nodetypes="cccccccccccccccccccccccccccccccccccccccccccccccccc" />
  </g>
</svg>
